<?xml version="1.0" encoding="UTF-8" standalone="no"?>
<svg width="223px" height="28px" viewBox="0 0 223 28" version="1.1" xmlns="http://www.w3.org/2000/svg" xmlns:xlink="http://www.w3.org/1999/xlink" xmlns:sketch="http://www.bohemiancoding.com/sketch/ns">
    <!-- Generator: Sketch 3.2.2 (9983) - http://www.bohemiancoding.com/sketch -->
    <title>fagerhult</title>
    <desc>Created with Sketch.</desc>
    <defs></defs>
    <g id="Page-1" stroke="none" stroke-width="1" fill="none" fill-rule="evenodd" sketch:type="MSPage">
        <g id="fagerhult" sketch:type="MSLayerGroup" fill="#FFFFFF">
            <path d="M4.65366925,4.2590625 L4.65366925,12.05575 L13.5827273,12.05575 L13.5827273,15.5596875 L4.65366925,15.5596875 L4.65366925,27.215125 L0.42270793,27.215125 L0.42270793,0.636125 L14.0873888,0.636125 L14.0873888,4.2590625 L4.65366925,4.2590625 L4.65366925,4.2590625 Z" id="Shape" sketch:type="MSShapeGroup"></path>
            <path d="M34.5136712,17.922625 L26.1285261,17.922625 L29.0779923,9.6928125 C29.5835164,8.2753125 30.009675,6.8184375 30.2818472,5.47925 L30.3603501,5.47925 C30.6704797,6.937 31.0189981,8.1965625 31.5245222,9.5746875 L34.5136712,17.922625 L34.5136712,17.922625 Z M42.3549033,27.215125 L32.8439749,0.636125 L28.1471721,0.636125 L18.7522727,27.215125 L23.0224855,27.215125 L25.0411315,21.347375 L35.6390232,21.347375 L37.6576692,27.215125 L42.3549033,27.215125 L42.3549033,27.215125 Z" id="Shape" sketch:type="MSShapeGroup"></path>
            <path d="M67.6125648,5.4009375 C65.4390696,4.5346875 63.0322224,4.0236875 60.6262379,4.0236875 C55.3458395,4.0236875 51.1148781,7.4878125 51.1148781,14.063875 C51.1148781,20.2059375 54.5698685,23.7895 60.198354,23.7895 C61.7132012,23.7895 63.0322224,23.5536875 64.2352147,23.1590625 L64.2352147,13.51175 L68.4670387,13.51175 L68.4670387,25.9940625 C65.8665222,27.0186875 62.6828414,27.608875 59.6936925,27.608875 C51.5798569,27.608875 46.5724932,22.687 46.5724932,14.4965625 C46.5724932,6.26675 52.0081721,0.2821875 60.974325,0.2821875 C63.4976325,0.2821875 65.9825513,0.6759375 68.2733694,1.423625 L67.6125648,5.4009375 L67.6125648,5.4009375 Z" id="Shape" sketch:type="MSShapeGroup"></path>
            <path d="M78.287234,27.215125 L78.287234,0.636125 L92.1084894,0.636125 L92.1084894,4.220125 L82.519058,4.220125 L82.519058,11.7796875 L91.6417853,11.7796875 L91.6417853,15.2840625 L82.519058,15.2840625 L82.519058,23.5536875 L92.1084894,23.5536875 L92.1084894,27.215125 L78.287234,27.215125 L78.287234,27.215125 Z" id="Shape" sketch:type="MSShapeGroup"></path>
            <path d="M113.695493,8.157625 C113.695493,10.7953125 111.638458,12.567625 108.221426,12.567625 C107.289743,12.567625 106.552592,12.52825 106.163959,12.488875 L106.163959,4.062625 C106.785513,4.02325 107.562346,3.983 108.378,3.983 C111.909337,3.983 113.695493,5.2434375 113.695493,8.157625 L113.695493,8.157625 L113.695493,8.157625 Z M119.829503,27.215125 L112.919522,17.962 C112.259149,17.09575 111.444358,16.072 110.706344,15.127 C114.976557,14.6545 118.121418,11.9371875 118.121418,7.685125 C118.121418,2.4084375 114.394255,0.4790625 108.95987,0.4790625 C106.008679,0.4790625 103.835184,0.5184375 101.932998,0.636125 L101.932998,27.215125 L106.163959,27.215125 L106.163959,15.7180625 L106.358491,15.7180625 L114.510716,27.215125 L119.829503,27.215125 L119.829503,27.215125 Z" id="Shape" sketch:type="MSShapeGroup"></path>
            <path d="M144.470787,27.215125 L144.470787,15.2840625 L132.08717,15.2840625 L132.08717,27.215125 L127.856209,27.215125 L127.856209,0.636125 L132.08717,0.636125 L132.08717,11.6221875 L144.470787,11.6221875 L144.470787,0.636125 L148.663791,0.636125 L148.663791,27.215125 L144.470787,27.215125 L144.470787,27.215125 Z" id="Shape" sketch:type="MSShapeGroup"></path>
            <path d="M168.408565,27.608875 C160.1787,27.608875 158.431364,23.0409375 158.431364,18.158 L158.431364,0.636125 L162.663188,0.636125 L162.663188,17.843 C162.663188,21.387625 163.82736,24.0646875 168.679874,24.0646875 C172.950087,24.0646875 174.891956,22.253 174.891956,17.2921875 L174.891956,0.636125 L179.045277,0.636125 L179.045277,16.977625 C179.045277,24.0646875 175.279294,27.608875 168.408565,27.608875 L168.408565,27.608875 L168.408565,27.608875 Z" id="Shape" sketch:type="MSShapeGroup"></path>
            <path d="M189.130311,27.215125 L189.130311,0.636125 L193.360841,0.636125 L193.360841,23.4740625 L202.36754,23.4740625 L202.36754,27.215125 L189.130311,27.215125 L189.130311,27.215125 Z" id="Shape" sketch:type="MSShapeGroup"></path>
            <path d="M215.362358,4.2590625 L215.362358,27.215125 L211.131397,27.215125 L211.131397,4.2590625 L203.949675,4.2590625 L203.949675,0.636125 L222.583762,0.636125 L222.583762,4.2590625 L215.362358,4.2590625 L215.362358,4.2590625 Z" id="Shape" sketch:type="MSShapeGroup"></path>
        </g>
    </g>
</svg>